<svg class="{{ include.class }}" width="700pt" height="700pt" viewBox="0 0 700 700">
 <g>
  <path d="m387.38 18.945c-96.949 6.1406-176.32 49.664-240.58 132.05-23.57 30.18-48.012 71.531-55.547 93.93-6.4062 18.953-3.9453 27.004 8.9688 29.121 4.6641 0.79297 15.73 0.6875 25.312-0.21094 8.4531-0.79297 58.055-1.9062 88.648-1.957 34.074-0.050781 48.168 3.1758 69.945 16.148 18.91 11.277 30.336 15.145 42.785 14.508 7.2266-0.37109 13.629-1.7461 25.109-5.4023 24.648-7.9414 47.398-12.602 71.48-14.824 15.477-1.3789 20.957-0.95312 28.488 2.1719 11.324 4.6602 19.727 12.07 40.48 35.738 12.605 14.402 16.551 18.375 23.828 24.09 30.387 23.773 52.418 28.062 67.996 13.129 12.555-11.965 20.137-39.289 26.852-96.84 1.0781-9.1055 1.1797-12.336 1.1797-34.414 0-25.73-0.35938-32.402-2.6133-49.93-5.7383-44.527-22.137-80.48-49.602-108.96-4.8164-4.9766-10.965-10.801-13.629-12.918-24.391-19.379-50.625-30.074-85.059-34.734-5.1758-0.6875-12.297-0.89844-36.637-1.0078-16.605-0.10938-33.465 0.050782-37.41 0.31641zm79.422 37.695c33.051 4.2344 54.266 13.977 66.461 30.551 3.0742 4.1289 7.2266 12.812 8.3516 17.316 0.71875 3.0195 0.71875 3.4961 0 4.9258-2.1016 4.2383-10.453 3.3359-29.363-3.125-17.215-5.9297-37.969-9.4766-65.945-11.223-13.938-0.84766-43.145-0.32031-56.824 1.0586-37.609 3.8672-69.023 11.594-102.28 25.203-27.055 11.066-41.965 18.266-72.406 35.051-17.012 9.3711-24.75 12.867-28.594 12.867-2.6641 0-2.9727-0.95312-1.1797-4.0781 1.793-3.2305 15.988-17.895 24.289-25.148 39.098-34.043 95.105-64.438 138.86-75.289 11.477-2.9102 39.457-6.7773 58.93-8.2617 4.0977-0.32031 8.4531-0.63672 9.7344-0.74219 1.2812-0.10547 11.527-0.10547 22.801-0.050782 14.965 0.10156 22.293 0.36328 27.16 0.94531zm6.1484 97.793c11.121 0.74219 21.523 1.8516 34.332 3.707 5.9453 0.84766 14.707 1.9062 19.473 2.3828 21.777 2.1719 29.004 5.6641 33 15.988 2.4062 6.1406 3.6367 11.488 3.6367 15.777 0 4.8164-1.1289 7.1484-3.8438 8.1016-1.8438 0.63672-3.2305 0.42188-17.883-2.7539-18.242-3.9727-27.516-5.7734-35.102-6.9336-13.117-2.0117-36.328-4.5547-56.418-6.1953-13.016-1.0586-49.652-0.84766-61.234 0.32031-21.164 2.1172-43.145 5.2969-55.598 8.0469-9.6328 2.1172-14.859 3.7578-30.488 9.4219-16.758 6.1406-22.086 7.7305-26.184 7.8906-7.1211 0.26562-3.3828-4.7656 11.07-14.719 16.191-11.172 40.84-24.195 55.75-29.598 15.629-5.6133 46.066-10.484 74.812-11.965 10.508-0.53125 43.559-0.21094 54.676 0.52734z"/>
  <path d="m204.77 285.73c-4.6836 1.0977-6.8125 2.5859-12.773 8.9062-23.68 25.242-35.496 52.953-34.43 80.777 0.85156 22.215 9.1523 43.387 25.812 65.879 4.4688 6.1055 5.5352 6.9844 7.8242 6.9844 2.2344 0 3.1953-0.87891 4.4688-3.957 0.58594-1.4297 1.543-2.8047 2.1289-3.1328 1.7031-0.99219 6.8672-0.71484 14.371 0.71484 3.8867 0.76953 7.4492 1.2109 7.9297 1.043 1.918-0.71484 3.2969-2.5273 3.2969-4.3438 0-1.5391-0.48047-2.1992-3.0312-4.4531-8.5156-7.2578-13.41-14.406-15.379-22.215-1.1719-4.6172-1.1719-14.242 0-19.906 2.6602-12.812 10.379-28.648 21.555-43.992 7.5547-10.449 14.262-18.367 25.438-30.023 9.4219-9.8438 10.805-11.492 10.805-12.977 0-0.99219-0.48047-2.2539-1.1172-2.9688-2.2344-2.4727-21.02-10.504-31.77-13.582-11.93-3.3594-19.008-4.1289-25.129-2.7539zm203.55 12.922c-8.3555 1.8672-13.25 3.4648-14.473 4.6758-1.0117 0.93359-1.3828 2.4727-2.2891 9.1289-5.5352 39.48-21.234 74.234-48.215 106.62-15.008 18.035-36.348 37.117-54.496 48.773-3.6719 2.3086-6.918 4.6172-7.2891 5.1133-1.0117 1.3203-0.79688 4.125 0.37109 5.3867 0.58594 0.66016 2.5 1.9805 4.2578 2.9688 3.6719 2.0352 8.9414 6.9844 10.324 9.7344 0.53125 1.043 1.0117 3.4102 1.1172 5.2812 0.050782 1.9258 0.42578 4.0156 0.74609 4.6172 0.64062 1.2109 2.7656 2.0898 4.4688 1.8164 1.0117-0.16406 23.363-15.012 33.102-22.051 30.547-21.996 55.879-46.465 74.238-71.762 13.516-18.641 23.895-38.215 31.133-58.84 4.5234-12.867 9.6328-36.293 10.004-45.641 0.10547-3.0234-0.050781-3.6836-1.1719-4.8945l-1.3281-1.4297-9.5781 0.10937c-5.3203 0.10938-13.359 0-17.883-0.27344-7.1836-0.32422-8.8867-0.26953-13.039 0.66406zm-201.59 151.33c-9.1523 2.2539-15.273 12.207-14.582 23.922 0.26562 4.8945 1.4375 8.1953 3.8867 11.055 1.3281 1.4844 54.867 34.918 62.051 38.711 6.2773 3.2969 16.445 0.99219 23.148-5.2812 8.0898-7.4766 8.4609-20.234 0.85156-27.879-2.7656-2.8047-62.16-39.207-65.672-40.25-3.0312-0.9375-6.543-1.0469-9.6836-0.27734z"/>
 </g>
</svg>
