<?xml version="1.0" encoding="UTF-8" standalone="no"?>
<!-- Created with Inkscape (http://www.inkscape.org/) -->

<svg
   width="64"
   height="64"
   viewBox="0 0 16.933333 16.933334"
   version="1.1"
   id="svg5"
   inkscape:version="1.1.2 (b8e25be833, 2022-02-05)"
   sodipodi:docname="logo_bc.svg"
   xmlns:inkscape="http://www.inkscape.org/namespaces/inkscape"
   xmlns:sodipodi="http://sodipodi.sourceforge.net/DTD/sodipodi-0.dtd"
   xmlns="http://www.w3.org/2000/svg"
   xmlns:svg="http://www.w3.org/2000/svg">
  <sodipodi:namedview
     id="namedview7"
     pagecolor="#ffffff"
     bordercolor="#666666"
     borderopacity="1.0"
     inkscape:pageshadow="2"
     inkscape:pageopacity="0.0"
     inkscape:pagecheckerboard="0"
     inkscape:document-units="px"
     showgrid="false"
     units="px"
     width="64px"
     inkscape:zoom="5.9223906"
     inkscape:cx="0.084425368"
     inkscape:cy="44.407743"
     inkscape:window-width="1920"
     inkscape:window-height="1017"
     inkscape:window-x="-8"
     inkscape:window-y="-8"
     inkscape:window-maximized="1"
     inkscape:current-layer="layer1" />
  <defs
     id="defs2" />
  <g
     inkscape:label="Calque 1"
     inkscape:groupmode="layer"
     id="layer1">
    <path
       style="fill:#000000;stroke-width:0.00960682"
       d="m 8.0072374,16.925127 c -0.106304,-0.006 -0.135521,-0.01111 -0.17179,-0.02978 -0.07707,-0.03969 -0.07959,-0.05051 -0.07959,-0.34209 0,-0.381842 0.0056,-0.37503 -0.345847,-0.424425 -0.220009,-0.03093 -0.412926,-0.06598 -0.641188,-0.116475 -0.141461,-0.0313 -0.189907,-0.03439 -0.236196,-0.01504 -0.05512,0.02303 -0.07668,0.06231 -0.159373,0.290472 -0.04386,0.120998 -0.08833,0.234153 -0.09883,0.251453 -0.04628,0.07627 -0.1209535,0.08013 -0.3221785,0.01669 -0.284977,-0.08985 -0.747075,-0.262341 -0.881503,-0.329046 -0.08328,-0.04132 -0.120086,-0.08756 -0.120086,-0.150854 0,-0.01871 0.03891,-0.142172 0.08646,-0.274349 0.04755,-0.132177 0.08637,-0.247855 0.08625,-0.257059 -3.77e-4,-0.02848 -0.03442,-0.09234 -0.06343,-0.118896 -0.0152,-0.01391 -0.09896,-0.0631 -0.186143,-0.109308 -0.215916,-0.114418 -0.329579,-0.180025 -0.535761,-0.309236 -0.09653,-0.06049 -0.189445,-0.113985 -0.206484,-0.11887 -0.09526,-0.02732 -0.127567,-0.0047 -0.319159,0.223891 -0.08739,0.104251 -0.171596,0.196117 -0.187124,0.204147 -0.03507,0.01813 -0.08719,0.01871 -0.128553,0.0015 -0.06374,-0.02668 -0.412644,-0.302694 -0.664377,-0.525628 -0.190904,-0.169065 -0.250264,-0.230886 -0.268679,-0.279822 -0.02926,-0.07775 -0.02115,-0.09407 0.146118,-0.294061 0.08257,-0.09872 0.160133,-0.194144 0.172368,-0.212053 0.02699,-0.03951 0.02993,-0.111651 0.0066,-0.160902 -0.0086,-0.01817 -0.08969,-0.11579 -0.180128,-0.216916 -0.09047,-0.101146 -0.237964,-0.277009 -0.32779,-0.390823 -0.240644,-0.304909 -0.235879,-0.303504 -0.504838,-0.148864 -0.09748,0.05605 -0.19921,0.114411 -0.226056,0.129692 -0.07891,0.04492 -0.148795,0.03595 -0.207242,-0.02659 -0.07201,-0.07706 -0.362047,-0.561655 -0.503888,-0.841898 -0.08888,-0.175607 -0.104159,-0.230759 -0.0779,-0.281244 0.02352,-0.04522 0.04942,-0.06383 0.247022,-0.177483 0.222243,-0.127817 0.24764,-0.145807 0.265209,-0.187852 0.02692,-0.06443 0.01844,-0.09941 -0.09147,-0.377437 -0.05767,-0.145896 -0.135449,-0.360754 -0.172834,-0.477464 -0.07118,-0.222225 -0.09095,-0.263215 -0.144255,-0.299136 -0.04474,-0.03015 -0.0799,-0.02839 -0.33218903,0.01658 -0.118542,0.02113 -0.231372,0.03843 -0.250734,0.03843 -0.04341,0 -0.09277,-0.02937 -0.117879,-0.07013 -0.064,-0.103917 -0.239236,-1.0981351 -0.213306,-1.210201 0.0124,-0.053584 0.03593,-0.083558 0.08077,-0.1029028 0.02201,-0.00949 0.143548,-0.035362 0.270085,-0.057483 0.230517,-0.040296 0.265741,-0.050262 0.29469803,-0.083392 0.04137,-0.047332 0.04099,-0.04193 0.0424,-0.6086164 0.0015,-0.599617 0.0016,-0.5980197 -0.05919,-0.6408837 -0.03752,-0.026443 -0.03453,-0.025715 -0.30544603,-0.074035 -0.254825,-0.045444 -0.272738,-0.051903 -0.307227,-0.1108051 -0.01363,-0.023274 -0.01801,-0.048505 -0.01735,-0.099868 0.0024,-0.187476 0.149327,-1.0047899 0.201975,-1.1238093 0.0201,-0.045451 0.06699,-0.089659 0.105285,-0.099269 0.01477,-0.00371 0.122946,0.01081 0.261047,0.035032 0.25491103,0.044703 0.30576203,0.048444 0.34140203,0.025093 0.05694,-0.037312 0.07156,-0.066428 0.145177,-0.2890036 0.04022,-0.1216089 0.120218,-0.340477 0.177775,-0.4863723 0.110972,-0.281288 0.122458,-0.3305037 0.09122,-0.3909029 -0.02054,-0.039713 -0.03431,-0.049281 -0.250762,-0.1740746 -0.110959,-0.063976 -0.215533,-0.1310377 -0.232386,-0.1490265 -0.04016,-0.042863 -0.04815,-0.087629 -0.02713,-0.1520109 0.03538,-0.1083774 0.329534,-0.6328025 0.500523,-0.8923328 0.09242,-0.1402726 0.124527,-0.1668864 0.200913,-0.1665219 0.04395,1.929e-4 0.06585,0.010604 0.257507,0.1222584 0.222477,0.1296052 0.26285,0.1467925 0.31181,0.1327508 0.062,-0.017783 0.09298,-0.048142 0.240399,-0.2355927 0.08303,-0.1055818 0.230344,-0.2807252 0.327356,-0.3892081 0.178434,-0.199534 0.212099,-0.2480571 0.212481,-0.3062703 3.27e-4,-0.051429 -0.02008,-0.082385 -0.178391,-0.270444 -0.08229,-0.09775 -0.15574,-0.1894005 -0.163231,-0.2036693 -0.02263,-0.043103 -0.0172,-0.1039864 0.0136,-0.1523053 0.06203,-0.097325 0.736864,-0.6693966 0.89177,-0.7559744 0.05525,-0.03088 0.11997,-0.033838 0.160359,-0.00733 0.01507,0.00989 0.09626,0.099898 0.180422,0.2000157 0.08416,0.1001167 0.164671,0.191196 0.178911,0.2023974 0.02045,0.016088 0.03924,0.020364 0.08947,0.020364 0.05936,0 0.06861,-0.00315 0.139535,-0.047016 0.271058,-0.1677674 0.436046,-0.2643352 0.599983,-0.3511662 0.102786,-0.054443 0.202333,-0.1093095 0.221216,-0.1219262 0.04308,-0.028786 0.07615,-0.086528 0.07615,-0.1329664 0,-0.020783 -0.03634,-0.1360145 -0.08721,-0.2765837 -0.0943,-0.26053308 -0.09615,-0.27201041 -0.05403,-0.33496844 0.02868,-0.0428772 0.09719,-0.0784136 0.328576,-0.1704389 0.331973,-0.13202748 0.72853,-0.26541727 0.82299,-0.27682664 0.06146,-0.007421 0.1266505,0.0238575 0.1511725,0.0725362 0.0097,0.0192592 0.05309,0.13228341 0.09642,0.25116763 0.08685,0.23828176 0.105105,0.26771173 0.178861,0.28836223 0.04883,0.013672 0.02844,0.016534 0.335548,-0.0471394 0.132017,-0.0273723 0.34601,-0.0647311 0.475539,-0.0830151 0.129528,-0.018285 0.251547,-0.0382238 0.271153,-0.0443052 0.03969,-0.0123065 0.09164,-0.0583 0.104721,-0.0926967 0.0047,-0.0123544 0.0086,-0.13133481 0.0088,-0.26440611 9.6e-5,-0.13307139 0.0042,-0.25924001 0.009,-0.28037518 0.01174,-0.0514154 0.06356,-0.0961402 0.128568,-0.11096085 0.06716,-0.0153127 0.821069,-0.0235148 1.017305,-0.011071 0.135349,0.008587 0.155601,0.0121761 0.193289,0.0342633 0.07082,0.0415043 0.07339,0.053502 0.07363,0.34380543 2.89e-4,0.27828168 0.0053,0.30754741 0.06163,0.3518083 0.03869,0.0304333 0.07032,0.0380239 0.2695982,0.0646687 0.2258717,0.0302002 0.4065297,0.0617732 0.6364624,0.11122381 0.181979,0.039137 0.217182,0.04075 0.27303,0.012499 0.04279,-0.0216478 0.06117,-0.0583822 0.145972,-0.29170009 0.04482,-0.12330652 0.08969,-0.23539227 0.09971,-0.24907976 0.03129,-0.0427326 0.0765,-0.0603244 0.141749,-0.055163 0.121393,0.009607 0.8828,0.28130379 1.074193,0.38331438 0.06908,0.0368166 0.102645,0.0820367 0.102645,0.13826714 0,0.0265282 -0.02789,0.11610723 -0.08232,0.26435955 -0.09497,0.2587212 -0.100365,0.2932232 -0.05569,0.3565307 0.0204,0.028896 0.05243,0.052452 0.123597,0.090901 0.299666,0.1618779 0.378438,0.206136 0.509163,0.2860718 0.07926,0.048464 0.180264,0.1113232 0.224463,0.1396886 0.07112,0.045643 0.08714,0.051951 0.139299,0.054882 0.0461,0.00261 0.06552,-8.237e-4 0.08911,-0.015649 0.0166,-0.010426 0.09997,-0.1025271 0.185266,-0.2046672 0.182226,-0.2182037 0.208977,-0.2385097 0.288955,-0.2193225 0.07165,0.017187 0.268223,0.164419 0.606398,0.4541828 0.290039,0.2485183 0.372676,0.3400228 0.373251,0.4133044 2.77e-4,0.043714 -0.02382,0.079217 -0.179752,0.2640857 -0.08151,0.096635 -0.154312,0.1874202 -0.161785,0.201744 -0.02046,0.039219 -0.01732,0.1160721 0.0063,0.1548661 0.01098,0.018016 0.09701,0.1196069 0.191191,0.2257618 0.09417,0.1061536 0.230361,0.2686617 0.302639,0.3611277 0.07227,0.092466 0.147022,0.1842954 0.166098,0.2040654 0.04243,0.043975 0.104387,0.069506 0.14857,0.061216 0.0176,-0.0033 0.10749,-0.049658 0.199756,-0.1030111 0.304462,-0.1760575 0.307157,-0.1770789 0.379685,-0.1441362 0.0453,0.020571 0.07238,0.053193 0.164399,0.1980178 0.233479,0.3674395 0.468692,0.8000513 0.480052,0.8829309 0.0068,0.049761 -0.0083,0.1011981 -0.03767,0.1280973 -0.01174,0.010749 -0.105636,0.068012 -0.208671,0.1272489 -0.10303,0.05924 -0.201448,0.1170057 -0.218698,0.1283739 -0.04482,0.029528 -0.07303,0.091977 -0.06716,0.1485879 0.0026,0.024757 0.0481,0.1552208 0.101188,0.2899779 0.05308,0.1347365 0.129781,0.3476984 0.170443,0.4732492 0.07456,0.2302178 0.09422,0.2732706 0.140424,0.307481 0.04294,0.031799 0.09587,0.02996 0.330133,-0.011483 0.249806,-0.044188 0.285647,-0.046473 0.327639,-0.020865 0.04703,0.028683 0.06847,0.074575 0.104356,0.2234098 0.06424,0.2664612 0.157848,0.8296623 0.161781,0.9733311 0.0022,0.079401 -0.0207,0.1339966 -0.06763,0.1614189 -0.01742,0.010179 -0.126195,0.03416 -0.269911,0.059515 -0.239119,0.042177 -0.279619,0.053701 -0.311132,0.088523 -0.04189,0.046295 -0.04265,0.057552 -0.04184,0.6274798 l 7.55e-4,0.5427874 0.02253,0.036322 c 0.0124,0.01998 0.03831,0.044256 0.05759,0.053948 0.01968,0.00989 0.138337,0.035423 0.270425,0.058197 0.135201,0.023309 0.247621,0.047586 0.264155,0.05705 0.05186,0.029685 0.07209,0.07183 0.07209,0.1502387 0,0.1676331 -0.117956,0.8574903 -0.187614,1.0972373 -0.01772,0.061 -0.0608,0.112618 -0.106595,0.127731 -0.02914,0.0096 -0.06996,0.0049 -0.292881,-0.03421 -0.257974,-0.0452 -0.259193,-0.04532 -0.302608,-0.02874 -0.06903,0.02636 -0.08955,0.0645 -0.172291,0.320189 -0.04049,0.125127 -0.118561,0.339826 -0.173491,0.477105 -0.08531,0.2132 -0.09988,0.257471 -0.09988,0.303596 0,0.08853 0.01446,0.102249 0.253819,0.240617 0.115434,0.06674 0.221962,0.13273 0.236725,0.146666 0.03893,0.03674 0.05198,0.08328 0.03845,0.137045 -0.0381,0.151349 -0.507411,0.958464 -0.609339,1.04796 -0.04032,0.0354 -0.08918,0.04727 -0.132437,0.03219 -0.0169,-0.0059 -0.126174,-0.06579 -0.242815,-0.133118 -0.196831,-0.113604 -0.215566,-0.122367 -0.260658,-0.121929 -0.03314,2.78e-4 -0.05983,0.0074 -0.08395,0.02234 -0.0213,0.01316 -0.09925,0.102842 -0.195847,0.225288 -0.08826,0.111883 -0.235719,0.287125 -0.327684,0.389423 -0.167703,0.186548 -0.20314,0.238297 -0.203533,0.297226 -2.77e-4,0.04908 0.02044,0.08055 0.174144,0.263831 0.07871,0.09385 0.151633,0.184637 0.162063,0.201744 0.0283,0.04641 0.02532,0.110197 -0.0074,0.158464 -0.07629,0.112587 -0.797392,0.71954 -0.911506,0.767219 -0.04122,0.01723 -0.103113,0.01692 -0.137118,-6.78e-4 -0.01482,-0.0077 -0.09872,-0.09953 -0.186448,-0.204146 -0.08773,-0.104618 -0.169386,-0.196309 -0.181461,-0.20376 -0.07675,-0.04736 -0.128819,-0.0321 -0.338351,0.09919 -0.212726,0.133285 -0.324379,0.197812 -0.505129,0.291926 -0.07661,0.03989 -0.161825,0.08674 -0.189356,0.104103 -0.05608,0.03538 -0.08924,0.08802 -0.08924,0.141705 0,0.01833 0.03696,0.135742 0.08213,0.260927 0.04517,0.125182 0.08451,0.239528 0.08743,0.254098 0.0081,0.04078 -0.02685,0.109626 -0.07024,0.138106 -0.08232,0.05405 -0.5091,0.22006 -0.867868,0.337595 -0.221647,0.07262 -0.287301,0.08174 -0.343877,0.0478 -0.04028,-0.02416 -0.05989,-0.06525 -0.149764,-0.313859 -0.0395,-0.10926 -0.07897,-0.209558 -0.0877,-0.222887 -0.0087,-0.01333 -0.03524,-0.03361 -0.0589,-0.04506 -0.05445,-0.02635 -0.07897,-0.02405 -0.349269,0.0328 -0.2502687,0.05263 -0.3263097,0.06583 -0.5619874,0.0976 -0.1996202,0.02689 -0.2492572,0.0433 -0.2857502,0.09446 -0.02098,0.02941 -0.02184,0.03927 -0.02649,0.304194 -0.0056,0.315233 -0.0074,0.323056 -0.08843,0.36339 -0.03777,0.01881 -0.06817,0.0237 -0.191975,0.03091 -0.172679,0.0101 -0.706227,0.0095 -0.890028,-9.6e-4 z m 1.016723,-1.531846 c 1.2669706,-0.103759 2.4492696,-0.535286 3.4797076,-1.270074 1.571147,-1.120355 2.618898,-2.869964 2.855147,-4.7677271 0.03951,-0.3174092 0.04484,-0.3988063 0.05068,-0.7738562 0.0056,-0.3608245 -0.002,-0.566213 -0.03133,-0.8448996 C 15.229886,6.3277741 14.672397,5.0351367 13.740986,3.9406351 13.589824,3.7630038 13.220961,3.389273 13.051551,3.242099 12.022331,2.34797 10.784336,1.7757637 9.4754806,1.5892226 7.3049104,1.2798692 5.1594749,1.9783471 3.6070319,3.4997788 c -1.097104,1.0751894 -1.805771,2.4686569 -2.017956,3.9679534 -0.04787,0.338285 -0.06001,0.5024493 -0.06544,0.8850183 -0.0053,0.3752633 0.0028,0.5747972 0.03593,0.8788066 0.207391,1.9048569 1.199278,3.6402589 2.742207,4.7977529 0.992709,0.744719 2.1595945,1.206475 3.3964345,1.344018 0.119308,0.01327 0.339712,0.03005 0.504361,0.03841 0.138936,0.0071 0.650287,-0.0045 0.821387,-0.01845 z M 4.9314379,12.76075 c -0.293967,-0.04648 -0.601517,-0.200324 -0.880883,-0.440637 -0.357031,-0.307119 -0.639259,-0.746878 -0.755861,-1.177758 -0.05803,-0.214436 -0.05755,-0.206242 -0.06123,-1.044305 -0.0038,-0.8531555 -0.0072,-0.8024017 0.05879,-0.8527774 0.01784,-0.013603 0.05894,-0.033687 0.09133,-0.044627 0.05119,-0.01729 0.07679,-0.019431 0.195739,-0.016391 0.155675,0.00398 0.203166,0.01856 0.269731,0.08284 0.06562,0.063358 0.06295,0.038251 0.05488,0.515437 -0.01835,1.0860004 0.03009,1.3625624 0.30185,1.7231574 0.08678,0.115151 0.270233,0.293883 0.384839,0.374942 0.115925,0.08198 0.275714,0.159 0.393651,0.189719 0.08734,0.02274 0.117903,0.02548 0.33624,0.03002 0.273694,0.0057 0.431093,-0.0054 0.552394,-0.03896 0.5583485,-0.15445 1.0436915,-0.755553 1.1293145,-1.398662 0.04238,-0.318268 -0.0131,-0.662693 -0.154493,-0.9592372 C 6.7531094,9.5050754 6.6450224,9.3577305 6.4757914,9.1964991 6.2309644,8.9632489 5.8909109,8.7779701 5.5858919,8.7116365 c -0.195044,-0.042417 -0.20784,-0.042843 -1.293311,-0.042946 -1.151626,-9.68e-5 -1.091884,0.00323 -1.15929,-0.06421 -0.05007,-0.05007 -0.05976,-0.092991 -0.0603,-0.2673281 -3.78e-4,-0.1191505 0.003,-0.1587364 0.0167,-0.1981001 0.02003,-0.057387 0.07164,-0.1130926 0.121003,-0.1306121 0.02752,-0.00976 0.266496,-0.012334 1.149143,-0.012334 1.229539,0 1.184838,-0.00193 1.450636,0.062102 0.8840555,0.2129173 1.6200365,0.9721039 1.8257255,1.8832925 0.05337,0.2364513 0.07156,0.5615823 0.04378,0.7829533 -0.09794,0.780546 -0.591703,1.499336 -1.265198,1.841789 -0.210159,0.10686 -0.3981305,0.166378 -0.6154105,0.194861 -0.145437,0.01907 -0.746651,0.01882 -0.867923,-3.78e-4 z m 6.4942361,-0.08801 c -0.229453,-0.02482 -0.626185,-0.131625 -0.975096,-0.262499 -0.220981,-0.08289 -0.3438,-0.1376 -0.4995557,-0.222542 -0.3886207,-0.211936 -0.6735269,-0.431776 -1.0136779,-0.78218 -0.550516,-0.567108 -0.968456,-1.396407 -1.085731,-2.1543669 -0.041,-0.2649519 -0.04878,-0.9572511 -0.01423,-1.2646503 0.06409,-0.570128 0.264567,-1.0992958 0.615085,-1.6235584 0.626748,-0.9374117 1.6269486,-1.6264988 2.6561756,-1.8299669 0.269338,-0.053248 0.376967,-0.062247 0.744531,-0.062274 0.381127,-2.89e-5 0.498619,0.011264 0.851891,0.081891 0.391119,0.078193 0.623956,0.174479 0.680735,0.281507 0.02192,0.041325 0.02247,0.046769 0.012,0.1186316 -0.02274,0.1559938 -0.08805,0.2695017 -0.239808,0.4167622 -0.140027,0.1358761 -0.123317,0.1297606 -0.245915,0.090006 -0.19764,-0.064092 -0.569321,-0.1273384 -0.873143,-0.1485841 -0.351007,-0.024544 -0.764419,0.033378 -1.139017,0.1595773 -0.689344,0.2322377 -1.2905364,0.6824609 -1.7202026,1.2882276 -0.271952,0.3834098 -0.45932,0.8448935 -0.525394,1.2940301 -0.0477,0.3242178 -0.03938,0.804157 0.01949,1.1250035 0.228486,1.2452503 1.2919549,2.3435103 2.5204336,2.6028883 0.199658,0.04215 0.335002,0.05511 0.631252,0.0604 0.433078,0.0077 0.565374,-0.0085 0.946574,-0.116394 0.289792,-0.082 0.270951,-0.07878 0.308268,-0.05272 0.122005,0.08521 0.221492,0.198331 0.281997,0.32063 0.05092,0.102937 0.07077,0.189496 0.071,0.309553 l 1.92e-4,0.08859 -0.05524,0.01535 c -0.03038,0.0084 -0.165477,0.04954 -0.300214,0.09133 -0.347739,0.10784 -0.509061,0.148328 -0.685185,0.17197 -0.06943,0.0094 -0.885905,0.01217 -0.967194,0.0033 z M 3.1769829,7.6946376 c -0.0314,-0.014537 -0.04498,-0.029287 -0.06542,-0.071054 -0.05061,-0.1034441 -0.05411,-0.3942913 -0.0057,-0.4723576 0.01727,-0.027839 0.06012,-0.071413 0.100205,-0.1018943 0.01553,-0.011806 0.112989,-0.01396 0.64366,-0.014249 0.653527,-3.85e-4 0.751859,-0.00535 0.935051,-0.047874 0.245105,-0.056844 0.497527,-0.2685296 0.617111,-0.5175208 0.06227,-0.129656 0.07192,-0.1794708 0.07185,-0.3709359 -9.6e-5,-0.1844764 -0.01239,-0.2504572 -0.07087,-0.3794179 -0.08006,-0.176573 -0.23858,-0.339867 -0.405233,-0.4174411 -0.105654,-0.049178 -0.158967,-0.058162 -0.344441,-0.058039 -0.174514,9.68e-5 -0.219909,0.00691 -0.309985,0.04637 -0.168384,0.073765 -0.367227,0.2773831 -0.417836,0.4278703 -0.01406,0.04182 -0.01675,0.092571 -0.0179,0.3374262 -8.23e-4,0.1813948 -0.0054,0.3028 -0.01226,0.3275846 -0.037,0.1334976 -0.169524,0.1877629 -0.411523,0.1685035 -0.08066,-0.00638 -0.108771,-0.013116 -0.159213,-0.037956 -0.100569,-0.049507 -0.09286,-0.01569 -0.09467,-0.4154411 -0.0017,-0.3810919 0.004,-0.4433938 0.0554,-0.5945666 0.04578,-0.1348538 0.160873,-0.3328777 0.261795,-0.4504262 0.10707,-0.1247115 0.35083,-0.3075441 0.513619,-0.3852376 0.100812,-0.048115 0.204307,-0.08303 0.284771,-0.096068 0.09793,-0.015868 0.53861,-0.013061 0.636754,0.00405 0.508362,0.088651 1.052203,0.6480522 1.154552,1.1875842 0.01776,0.093597 0.02061,0.4840629 0.0044,0.6006649 -0.06322,0.454601 -0.356705,0.8660831 -0.79898,1.1202384 -0.104472,0.060036 -0.287852,0.1348566 -0.406561,0.1658802 -0.210595,0.055039 -0.210292,0.055019 -0.993642,0.05898 -0.697846,0.0035 -0.726819,0.00296 -0.764948,-0.014682 z"
       id="path1016" />
  </g>
</svg>
