<?xml version="1.0" encoding="UTF-8" standalone="no"?>
<!-- Created with Inkscape (http://www.inkscape.org/) -->

<svg
   width="170"
   height="110"
   viewBox="0 0 44.979167 29.104168"
   version="1.1"
   id="svg5"
   inkscape:version="1.1.2 (b8e25be833, 2022-02-05)"
   sodipodi:docname="logo_full.svg"
   xmlns:inkscape="http://www.inkscape.org/namespaces/inkscape"
   xmlns:sodipodi="http://sodipodi.sourceforge.net/DTD/sodipodi-0.dtd"
   xmlns="http://www.w3.org/2000/svg"
   xmlns:svg="http://www.w3.org/2000/svg">
  <sodipodi:namedview
     id="namedview7"
     pagecolor="#ffffff"
     bordercolor="#666666"
     borderopacity="1.0"
     inkscape:pageshadow="2"
     inkscape:pageopacity="0.0"
     inkscape:pagecheckerboard="0"
     inkscape:document-units="px"
     showgrid="false"
     units="px"
     width="64px"
     inkscape:zoom="4.1877625"
     inkscape:cx="78.920425"
     inkscape:cy="68.294226"
     inkscape:window-width="1920"
     inkscape:window-height="1017"
     inkscape:window-x="-8"
     inkscape:window-y="-8"
     inkscape:window-maximized="1"
     inkscape:current-layer="layer1" />
  <defs
     id="defs2" />
  <g
     inkscape:label="Calque 1"
     inkscape:groupmode="layer"
     id="layer1">
    <path
       style="fill:#000000;stroke-width:0.015394"
       d="m 25.638781,28.396621 c -0.190336,-0.06019 -0.289701,-0.181515 -0.310332,-0.378902 -0.0101,-0.09632 0.0352,-0.307112 0.08387,-0.390554 l 0.028,-0.04797 0.29166,-0.01821 c 0.160414,-0.01 0.327429,-0.02828 0.371149,-0.04058 0.222987,-0.06284 0.342864,-0.176464 0.47438,-0.449627 0.112605,-0.233888 0.251675,-0.57787 0.263321,-0.651312 0.007,-0.04456 -0.01107,-0.113014 -0.08631,-0.325807 -0.18085,-0.511546 -0.488448,-1.320337 -0.992358,-2.609289 -0.278938,-0.713505 -0.619999,-1.628439 -0.70128,-1.881267 -0.06275,-0.195187 -0.06434,-0.204874 -0.03976,-0.242374 0.04943,-0.07544 0.215476,-0.118117 0.456256,-0.117259 0.189515,6.82e-4 0.285406,0.02532 0.385097,0.09893 0.0936,0.06912 0.156482,0.191272 0.2463,0.47855 0.03985,0.127485 0.150316,0.449999 0.245458,0.7167 0.09515,0.266704 0.268449,0.762005 0.385123,1.100674 0.245638,0.713007 0.512939,1.47189 0.548022,1.555852 0.0185,0.04428 0.02757,0.05289 0.03812,0.03623 0.0076,-0.01204 0.01396,-0.03336 0.01408,-0.04733 3.06e-4,-0.03575 0.128652,-0.463098 0.202679,-0.674972 0.03403,-0.09737 0.151027,-0.416023 0.26001,-0.708125 0.397888,-1.06642 0.629639,-1.707909 0.692773,-1.917594 0.08406,-0.279211 0.150532,-0.418097 0.245549,-0.513113 0.107698,-0.107702 0.182276,-0.129357 0.42053,-0.12211 0.163257,0.005 0.198937,0.01098 0.274809,0.04628 0.11199,0.0521 0.12901,0.08269 0.104175,0.187162 -0.05465,0.22985 -0.324291,0.972927 -0.872328,2.404038 -0.207507,0.541869 -0.484377,1.279631 -0.61527,1.639465 -0.251569,0.691585 -0.521681,1.374323 -0.700393,1.770314 -0.297911,0.660109 -0.604086,0.999557 -0.992943,1.100841 -0.113398,0.02953 -0.628251,0.03053 -0.720393,0.0015 z M 2.2860181,27.360727 C 1.9184844,27.312838 1.6150949,27.211868 1.34668,27.04811 0.70133354,26.654394 0.29908723,25.949637 0.20005471,25.039161 c -0.0217426,-0.199901 -0.0200818,-1.555246 0.00197,-1.598143 0.0612765,-0.11927 0.17017597,-0.157957 0.40942917,-0.145447 0.12695283,0.0066 0.15089142,0.01286 0.22706174,0.05901 l 0.0851471,0.0516 1.0159e-4,0.554782 c 2.0469e-4,0.906392 0.0324682,1.317021 0.12290099,1.565131 0.1436277,0.394074 0.5284763,0.818344 0.8855481,0.976258 0.1618592,0.07159 0.250291,0.08342 0.625055,0.08368 0.3184624,2.04e-4 0.3608446,-0.003 0.4956473,-0.03716 0.4600201,-0.116686 0.9136274,-0.508 1.1433242,-0.986303 0.1315428,-0.273917 0.137244,-0.306025 0.1366698,-0.769701 -5.182e-4,-0.391548 -0.00141,-0.403183 -0.042385,-0.535354 -0.2082348,-0.671642 -0.8632777,-1.243512 -1.5734936,-1.373706 -0.2053746,-0.03765 -0.8134602,-0.04628 -1.5855864,-0.02251 -0.60292728,0.01856 -0.67281488,0.01814 -0.78387416,-0.0047 -0.15363521,-0.03174 -0.25028223,-0.08976 -0.30140576,-0.180943 -0.03353952,-0.05982 -0.03848502,-0.08745 -0.03847758,-0.214886 1.485e-5,-0.195163 0.03579223,-0.279413 0.1378023,-0.324537 0.0682924,-0.03021 0.0962925,-0.03075 1.3514266,-0.0255 1.2646952,0.0053 1.2837269,0.0058 1.4356265,0.04008 1.0328916,0.233063 1.8769789,1.045808 2.1123011,2.03387 0.034606,0.145303 0.039343,0.203915 0.046332,0.573183 0.00649,0.342829 0.00341,0.437558 -0.018556,0.568843 -0.1629918,0.974764 -1.0949809,1.853544 -2.1423704,2.020063 -0.1426536,0.02268 -0.5156447,0.03083 -0.6442567,0.01405 z m 21.7399469,-0.03532 c -0.986601,-0.09579 -1.920451,-0.507617 -2.639835,-1.16414 -0.425282,-0.38812 -0.898293,-1.049813 -1.135096,-1.587875 -0.262269,-0.59594 -0.345875,-1.084801 -0.325776,-1.904914 0.01347,-0.549558 0.04846,-0.771644 0.188021,-1.193037 0.29949,-0.904354 1.011917,-1.842882 1.798568,-2.369368 0.72267,-0.483667 1.603176,-0.754609 2.462739,-0.757811 0.556291,-0.0021 1.354117,0.140391 1.602971,0.286228 0.08294,0.0486 0.106691,0.104447 0.09575,0.22515 -0.0146,0.161047 -0.175496,0.44271 -0.312635,0.547308 -0.07726,0.05892 -0.128693,0.05563 -0.505586,-0.03233 -0.456885,-0.106634 -0.623602,-0.131313 -0.887053,-0.131313 -0.926829,0 -1.831622,0.390661 -2.519188,1.087703 -0.551643,0.559246 -0.903075,1.270451 -0.998028,2.019744 -0.03396,0.267914 -0.0254,0.886778 0.01536,1.11052 0.13794,0.757278 0.469135,1.384232 1.018567,1.928155 0.462827,0.45819 1.034812,0.782858 1.660438,0.942495 0.306428,0.0782 0.528214,0.106121 0.846672,0.106629 0.306581,5.2e-4 0.408843,-0.01483 0.877459,-0.131453 0.308777,-0.07684 0.442635,-0.08916 0.509427,-0.04686 0.141657,0.08969 0.329547,0.442654 0.329547,0.619063 0,0.07248 -0.04433,0.121081 -0.166849,0.182926 -0.350218,0.176791 -1.366787,0.316469 -1.915482,0.263189 z M 8.9593355,26.462491 C 7.9222786,26.369601 7.1176081,25.447846 7.004558,24.223278 c -0.046345,-0.50195 6.804e-4,-1.057351 0.1235335,-1.45743 0.3383613,-1.102393 1.276014,-1.717093 2.4854961,-1.629422 0.4579654,0.03321 0.8193294,0.150916 1.1657134,0.379745 0.161428,0.106644 0.462634,0.412868 0.580114,0.589775 0.320092,0.482014 0.478605,1.040515 0.478605,1.686298 0,1.155429 -0.547212,2.14513 -1.390556,2.514992 -0.198051,0.08686 -0.400621,0.136347 -0.6365041,0.155503 -0.2176157,0.01768 -0.6529888,0.01753 -0.8516244,-2.04e-4 z m 0.9236437,-0.776166 c 0.1764258,-0.05558 0.2926588,-0.130452 0.4541238,-0.292523 0.170946,-0.171588 0.26046,-0.308593 0.364841,-0.558408 0.07993,-0.191275 0.157774,-0.501042 0.182276,-0.725254 0.02661,-0.243577 0.01121,-0.670145 -0.03151,-0.872082 -0.153964,-0.727833 -0.531231,-1.186624 -1.0921076,-1.328101 -0.1557972,-0.03929 -0.5375991,-0.03497 -0.7103884,0.0082 -0.5833279,0.145242 -0.9923326,0.644824 -1.099623,1.343142 -0.031919,0.207762 -0.031308,0.93101 8.666e-4,1.1179 0.076997,0.446131 0.3080316,0.860637 0.6086417,1.09197 0.1587454,0.122162 0.3421809,0.206374 0.5186754,0.238111 0.040099,0.0072 0.2183893,0.01103 0.3961908,0.0085 0.254005,-0.0036 0.3414174,-0.01032 0.4079413,-0.03131 z M 31.29609,26.463031 c -0.672357,-0.06806 -1.250544,-0.512165 -1.593244,-1.223746 -0.120508,-0.250225 -0.192634,-0.479235 -0.247269,-0.785097 -0.03398,-0.190177 -0.04715,-0.785381 -0.02336,-1.054492 0.04618,-0.522044 0.189672,-0.954889 0.443204,-1.336879 0.107153,-0.161445 0.327015,-0.392531 0.486232,-0.511064 0.23417,-0.174327 0.568728,-0.320647 0.860283,-0.376246 0.318332,-0.06071 0.774446,-0.06011 1.073023,0.0014 0.611463,0.125981 1.068582,0.465565 1.332701,0.990034 0.05612,0.111433 0.162249,0.407193 0.162249,0.452137 0,0.03882 -0.135367,0.14605 -0.228278,0.180814 -0.126125,0.04719 -0.324491,0.06644 -0.456755,0.04434 -0.16182,-0.02705 -0.16692,-0.03045 -0.198212,-0.131773 -0.116588,-0.377575 -0.440307,-0.696982 -0.81143,-0.800624 -0.145142,-0.04053 -0.499853,-0.03624 -0.668309,0.0081 -0.574036,0.15108 -0.963294,0.647283 -1.055038,1.344892 -0.01161,0.08836 -0.01532,0.307611 -0.01076,0.638851 0.0065,0.475486 0.0092,0.513685 0.04641,0.668074 0.141016,0.584898 0.475032,0.988478 0.924552,1.117106 0.107508,0.03078 0.567185,0.0445 0.715854,0.02139 0.438442,-0.06815 0.728014,-0.361466 0.909358,-0.921132 0.04723,-0.145783 0.06462,-0.181259 0.095,-0.193881 0.05877,-0.0244 0.562412,-0.02185 0.648973,0.0034 0.08594,0.02497 0.144699,0.0746 0.159861,0.134998 0.02533,0.100931 -0.04646,0.403716 -0.139985,0.590404 -0.186819,0.372921 -0.561814,0.737474 -0.969511,0.942514 -0.327465,0.164688 -0.477602,0.196771 -0.955249,0.204125 -0.203204,0.0032 -0.42834,-3.04e-4 -0.500306,-0.0075 z m 6.463692,3.96e-4 c -0.532116,-0.05151 -0.960784,-0.252155 -1.330399,-0.622714 -0.337357,-0.338219 -0.554748,-0.754953 -0.656996,-1.259431 -0.03291,-0.162349 -0.03513,-0.210127 -0.03513,-0.758241 0,-0.547288 0.0021,-0.596076 0.03495,-0.757339 0.198115,-0.977192 0.889713,-1.699374 1.809317,-1.889323 0.436546,-0.09017 0.996393,-0.05021 1.393563,0.09944 0.528593,0.199193 0.940794,0.573639 1.194146,1.08478 0.199966,0.403431 0.285392,0.783573 0.286001,1.272674 3.06e-4,0.240234 2.04e-4,0.241491 -0.04152,0.290983 -0.02301,0.02734 -0.07322,0.06423 -0.111605,0.08199 -0.06928,0.03207 -0.08257,0.03236 -1.855489,0.04 l -1.785712,0.0077 0.0043,0.115455 c 0.02463,0.666826 0.439605,1.302012 0.971445,1.486971 0.161618,0.0562 0.324821,0.07236 0.646713,0.06401 0.32784,-0.0086 0.423898,-0.0304 0.580036,-0.132196 0.129907,-0.08471 0.234638,-0.197594 0.387921,-0.418172 0.254681,-0.366483 0.33182,-0.423667 0.567873,-0.420976 0.160526,0.0018 0.274101,0.02466 0.375659,0.07551 0.07769,0.0389 0.183749,0.146502 0.183749,0.186406 0,0.03126 -0.243613,0.503224 -0.320403,0.620754 -0.0768,0.117568 -0.340688,0.376177 -0.484241,0.474577 -0.212923,0.145951 -0.503536,0.267162 -0.788639,0.328928 -0.110489,0.02394 -0.214928,0.03113 -0.5157,0.03553 -0.207437,0.0031 -0.436848,-3.05e-4 -0.509808,-0.0072 z m 1.747622,-3.1692 c 0.01411,-0.02286 -0.09378,-0.500553 -0.138056,-0.611214 -0.139497,-0.348689 -0.350265,-0.558555 -0.699514,-0.696525 -0.277644,-0.109685 -0.608424,-0.134824 -0.883262,-0.06712 -0.500168,0.123198 -0.904934,0.513445 -1.040453,1.003132 -0.03424,0.123776 -0.05698,0.320499 -0.04165,0.360454 0.0085,0.02202 0.145159,0.02439 1.402096,0.02439 0.766006,0 1.396385,-0.0059 1.400843,-0.01311 z m 2.851389,3.1679 c -0.632007,-0.05601 -1.147941,-0.403263 -1.43946,-0.968831 -0.08436,-0.163635 -0.186695,-0.440521 -0.186695,-0.505064 0,-0.0359 0.09893,-0.130077 0.17703,-0.168552 0.09107,-0.04486 0.21263,-0.06937 0.344641,-0.06951 0.2195,-2.03e-4 0.302031,0.06579 0.486635,0.389191 0.220363,0.386032 0.392459,0.520093 0.73122,0.569603 0.169651,0.02481 0.722775,0.01884 0.858756,-0.0093 0.372402,-0.07693 0.637761,-0.308239 0.711287,-0.620038 0.06041,-0.256154 -0.05434,-0.462672 -0.338388,-0.609026 -0.182322,-0.09394 -0.374818,-0.154778 -0.969956,-0.306543 -0.556679,-0.141937 -0.848436,-0.234733 -1.076048,-0.342225 -0.432595,-0.204298 -0.699989,-0.495095 -0.786293,-0.855106 -0.03914,-0.163307 -0.04235,-0.468166 -0.0067,-0.641443 0.09991,-0.48613 0.483612,-0.880537 1.037004,-1.065943 0.609579,-0.204228 1.417023,-0.1661 1.99745,0.09433 0.348887,0.156532 0.632989,0.414295 0.750535,0.680939 0.04428,0.100462 0.08533,0.279615 0.08533,0.372524 0,0.0573 -0.0084,0.07961 -0.04252,0.11379 -0.09352,0.09352 -0.439472,0.176288 -0.593108,0.141906 -0.116524,-0.02608 -0.178089,-0.0845 -0.326349,-0.309721 -0.07118,-0.10813 -0.159219,-0.222314 -0.195635,-0.253741 -0.15979,-0.137892 -0.373935,-0.205852 -0.689673,-0.218872 -0.468273,-0.01931 -0.802373,0.07317 -1.00923,0.279345 -0.05131,0.05114 -0.108928,0.125577 -0.128044,0.165415 -0.101636,0.211835 -0.02654,0.456067 0.185003,0.601773 0.154818,0.106627 0.400906,0.188916 1.252459,0.418811 0.90567,0.244505 1.202071,0.363612 1.423722,0.572129 0.14984,0.140956 0.243539,0.287001 0.309451,0.482321 0.0421,0.124743 0.05044,0.174697 0.05673,0.339797 0.01412,0.369797 -0.09461,0.70709 -0.328284,1.018433 -0.307993,0.410382 -0.765209,0.65585 -1.31074,0.703708 -0.206184,0.01809 -0.775375,0.01803 -0.980084,-2.04e-4 z M 5.7958594,26.35033 C 5.7007754,26.32558 5.6679744,26.30801 5.6188285,26.25549 l -0.038485,-0.04114 -0.0044,-3.32772 c -0.00246,-1.830247 -3.053e-4,-3.350385 0.00461,-3.378083 0.026425,-0.147621 0.2013308,-0.226346 0.4815839,-0.216752 0.1463188,0.0051 0.1753679,0.01086 0.2565381,0.05171 0.070272,0.03538 0.098851,0.06037 0.1230329,0.107643 0.031445,0.06147 0.031497,0.06697 0.031497,3.378989 v 3.317417 l -0.034281,0.06411 c -0.025797,0.04824 -0.054745,0.07413 -0.1169179,0.104554 -0.071368,0.03493 -0.1076201,0.04135 -0.2658998,0.04728 -0.1218309,0.0046 -0.2090674,2.05e-4 -0.2602367,-0.01317 z m 7.7620236,0.0055 c -0.243541,-0.04458 -0.36721,-0.24089 -0.519138,-0.824053 -0.02648,-0.101605 -0.106921,-0.36484 -0.178788,-0.584976 -0.07186,-0.220133 -0.193031,-0.618454 -0.269258,-0.885156 -0.07623,-0.266702 -0.262429,-0.858988 -0.413781,-1.316189 -0.233241,-0.704555 -0.347118,-1.074882 -0.39073,-1.270633 -0.01258,-0.05648 0.0368,-0.127797 0.123989,-0.179043 0.073,-0.0429 0.07775,-0.04356 0.320392,-0.04356 0.239881,0 0.24815,9.88e-4 0.317017,0.04159 0.135359,0.07957 0.183558,0.174355 0.268096,0.527211 0.02851,0.118973 0.117545,0.448379 0.197867,0.732014 0.08032,0.283636 0.212816,0.765085 0.294436,1.069887 0.254731,0.951302 0.429339,1.5471 0.4534,1.5471 0.007,0 0.01749,-0.03291 0.02324,-0.07312 0.02684,-0.187956 0.148619,-0.648691 0.35504,-1.343131 0.138523,-0.466022 0.490089,-1.747673 0.529948,-1.931951 0.04505,-0.20831 0.100349,-0.360038 0.155683,-0.427161 0.0253,-0.03069 0.08569,-0.07529 0.13419,-0.09911 0.08124,-0.0399 0.104795,-0.04373 0.29849,-0.0486 0.174871,-0.0044 0.231785,2.04e-4 0.337948,0.02698 0.07021,0.01776 0.134153,0.03877 0.142086,0.0467 0.0079,0.0079 0.235468,0.854773 0.505638,1.881866 0.270171,1.027095 0.497685,1.873913 0.50559,1.881817 0.0079,0.0079 0.01658,0.01137 0.01925,0.0077 0.0028,-0.0037 0.03458,-0.1279 0.07084,-0.276066 0.07698,-0.314408 0.202499,-0.736589 0.40743,-1.370412 0.162493,-0.50257 0.387115,-1.245207 0.504519,-1.668047 0.08737,-0.314635 0.112929,-0.372597 0.193879,-0.439548 0.08195,-0.06777 0.182406,-0.09342 0.366056,-0.09342 0.253605,0 0.407941,0.06863 0.407941,0.18142 0,0.09394 -0.217693,0.806509 -0.600642,1.96605 -0.303393,0.918656 -0.581213,1.802316 -0.693758,2.206626 -0.103847,0.373067 -0.166195,0.521855 -0.262556,0.626532 -0.108058,0.117384 -0.165924,0.135854 -0.428875,0.136881 -0.267374,9.89e-4 -0.341221,-0.01643 -0.441219,-0.104458 -0.08032,-0.0707 -0.127141,-0.163063 -0.165023,-0.325563 -0.01382,-0.05925 -0.04265,-0.183958 -0.06405,-0.277092 -0.02142,-0.09316 -0.08328,-0.33215 -0.137471,-0.531119 -0.05419,-0.198968 -0.175717,-0.663099 -0.270063,-1.031402 -0.154716,-0.603977 -0.315863,-1.211539 -0.378696,-1.427796 -0.01291,-0.04445 -0.02913,-0.08082 -0.03604,-0.08082 -0.0069,0 -0.01742,0.03245 -0.02337,0.07213 -0.02064,0.137604 -0.133434,0.569613 -0.294684,1.128608 -0.08915,0.309034 -0.207019,0.735066 -0.261942,0.946734 -0.05492,0.211669 -0.133925,0.506078 -0.17556,0.654245 -0.04163,0.148169 -0.09262,0.352548 -0.113319,0.454178 -0.0207,0.101635 -0.05197,0.22314 -0.06951,0.270024 -0.03866,0.103353 -0.122334,0.18923 -0.21682,0.222554 -0.08184,0.02887 -0.417055,0.04384 -0.527668,0.02359 z m 21.060378,2.03e-4 c -0.09942,-0.01824 -0.16398,-0.05952 -0.198646,-0.127054 -0.02856,-0.05564 -0.02933,-0.143247 -0.02933,-3.412447 v -3.355304 l 0.03813,-0.04531 c 0.02096,-0.02493 0.07467,-0.06181 0.119303,-0.082 0.07264,-0.03285 0.103015,-0.03668 0.288994,-0.03668 0.200484,0 0.211022,0.0015 0.298553,0.04619 0.165173,0.08407 0.147879,-0.322826 0.14785,3.478813 0,3.13516 -0.0015,3.328416 -0.02694,3.378925 -0.03045,0.06058 -0.104384,0.115585 -0.18674,0.138906 -0.07724,0.02188 -0.363814,0.03204 -0.451179,0.01601 z M 0.18473221,21.774718 C 0.05653033,21.717879 3.6894249e-6,21.605981 3.6894249e-6,21.409009 c 0,-0.147158 0.024853460575,-0.217467 0.1093015505751,-0.309213 l 0.0722383,-0.07847 0.80593305,-5.19e-4 c 0.83810841,-6.27e-4 0.87262431,-0.0029 1.05029491,-0.06932 0.2701304,-0.101074 0.510857,-0.384032 0.5888354,-0.692141 0.090095,-0.355985 -0.049613,-0.802538 -0.3142056,-1.004279 -0.1760895,-0.134263 -0.3247476,-0.17303 -0.6251462,-0.16303 -0.1657559,0.0055 -0.1981059,0.01118 -0.2719035,0.04758 -0.1893786,0.09342 -0.3638679,0.27652 -0.42874201,0.449912 -0.0475345,0.127036 -0.0627171,0.253231 -0.0628506,0.522121 -1.023e-4,0.238851 -0.00102,0.246117 -0.0394934,0.296477 C 0.81652449,20.496937 0.73843623,20.52644 0.554185,20.53283 0.40888407,20.53793 0.38563831,20.53483 0.32417558,20.50279 0.1941161,20.435 0.19307499,20.43123 0.18767335,20.008093 c -0.004254,-0.33375 -0.001422,-0.386714 0.0275548,-0.512483 0.12244756,-0.531623 0.618558,-1.008787 1.19099365,-1.14551 0.7260034,-0.1734 1.517982,0.22328 1.8567189,0.929979 0.1317406,0.274847 0.1805495,0.528255 0.1648925,0.856103 C 3.3888822,20.951849 2.8291049,21.546172 1.901162,21.75707 1.7736265,21.78606 1.70206,21.78895 1.0006112,21.7936 0.33800323,21.798 0.23157764,21.7956 0.18472711,21.77475 Z M 13.007968,17.585952 c -0.377992,-0.04891 -0.778417,-0.198114 -1.138688,-0.424283 -0.331627,-0.208188 -0.754104,-0.599892 -0.92632,-0.858847 -0.187903,-0.282544 -0.349947,-0.675646 -0.428244,-1.038876 -0.07999,-0.371083 -0.08214,-0.405185 -0.08877,-1.410684 l -0.0062,-0.948862 0.04815,-0.05483 c 0.08086,-0.0921 0.187109,-0.123356 0.423447,-0.124589 0.20985,-10e-4 0.294021,0.01629 0.404041,0.08341 l 0.04998,0.03049 -0.0013,0.789202 c -0.0015,0.950151 0.01638,1.205859 0.110625,1.574301 0.179403,0.701395 0.81297,1.287983 1.549122,1.434259 0.199049,0.03956 0.548338,0.0359 0.753743,-0.0079 0.888393,-0.189326 1.646686,-0.91084 1.781029,-1.694649 0.02912,-0.169908 0.03432,-0.702313 0.0089,-0.909787 -0.08882,-0.724341 -0.581392,-1.370143 -1.326356,-1.738953 -0.348077,-0.172321 -0.678167,-0.263058 -1.064089,-0.2925 -0.324493,-0.02477 -7.4699078,-0.01931 -8.3360293,0.0064 -0.38382,0.01137 -0.7031131,0.02667 -0.7095374,0.03404 -0.00643,0.0072 -0.02042,0.05491 -0.0311,0.105714 C 3.9630974,12.696968 3.3390586,13.263751 2.636089,13.45078 2.5002666,13.48692 2.4523631,13.49127 2.1244757,13.49736 1.7639359,13.50396 1.762534,13.50396 1.708837,13.46754 1.614955,13.40388 1.5817203,13.292192 1.573472,13.012615 l -0.00693,-0.23476 -0.58695031,-1.4e-5 -0.58694974,-1.7e-5 -0.0605035,-0.0808 c -0.0904856,-0.12076 -0.0997404,-0.159441 -0.10040499,-0.419445 -6.2765e-4,-0.242047 0.0117106,-0.320328 0.0598274,-0.379768 l 0.029027,-0.03589 0.6209817,-0.0076 0.62098284,-0.0077 0.00417,-0.311729 0.00417,-0.31173 H 1.0141919 c -0.60890283,0 -0.64839411,-0.0046 -0.72895944,-0.08518 -0.0699857,-0.06999 -0.0852011,-0.141828 -0.0850304,-0.401519 1.0162e-4,-0.208167 0.003465,-0.236164 0.036305,-0.306094 0.0416507,-0.08867 0.0730018,-0.120265 0.15219171,-0.153354 0.0474784,-0.01984 0.14757669,-0.02367 0.61698583,-0.02367 h 0.560317 l 0.00806,-0.23476 c 0.00844,-0.246159 0.025349,-0.3231748 0.090209,-0.4109003 0.018884,-0.025538 0.058488,-0.054404 0.088009,-0.064156 0.078121,-0.025781 0.6529564,-0.00801 0.8030706,0.024822 0.4183354,0.091516 0.8204832,0.3147445 1.1032172,0.6123893 0.1344748,0.141568 0.1645553,0.192201 0.3168143,0.533264 0.066311,0.148542 0.1308494,0.285768 0.1434161,0.304948 l 0.022848,0.03488 4.2907346,3.06e-4 c 4.2690816,3.05e-4 4.7349026,0.0053 5.1078296,0.05391 0.666267,0.08694 1.16338,0.294423 1.67674,0.699877 0.281143,0.222051 0.616574,0.597996 0.80589,0.903238 0.235581,0.379836 0.401436,0.842452 0.448904,1.252112 0.02915,0.251618 0.01194,0.919069 -0.02872,1.112955 -0.233927,1.11573 -1.093726,2.052823 -2.198385,2.396013 -0.300645,0.09342 -0.425159,0.111014 -0.821097,0.116131 -0.198968,0.0027 -0.386005,0.0015 -0.415639,-0.0022 z m 8.697633,-0.01435 c -0.693173,-0.09169 -1.447409,-0.306845 -1.921975,-0.548244 -0.602334,-0.306395 -0.899909,-0.499218 -1.259896,-0.816401 -0.937598,-0.826103 -1.652132,-2.078728 -1.850712,-3.244412 -0.06082,-0.357038 -0.08222,-1.040097 -0.04726,-1.508616 0.08718,-1.1685 0.682064,-2.4120045 1.614857,-3.3756396 0.835106,-0.8627188 1.988663,-1.4265169 3.252635,-1.589718 0.264038,-0.034096 0.815184,-0.04604 1.097572,-0.023785 0.52103,0.041052 0.820177,0.1046447 1.242418,0.2641112 0.292416,0.1104355 0.503198,0.1837897 0.528115,0.1837897 0.0097,0 0.04084,-0.032899 0.06925,-0.073123 0.272274,-0.3853438 0.811997,-0.9166411 1.298402,-1.2781355 0.0943,-0.070089 0.192143,-0.1434896 0.217418,-0.1631183 l 0.04595,-0.035682 -0.09071,-0.1909443 c -0.171877,-0.361822 -0.468498,-0.9528038 -0.5014,-0.9990109 -0.02808,-0.039415 -0.04302,-0.046314 -0.100401,-0.046314 -0.08503,0 -0.248652,0.051157 -0.599441,0.1874115 -0.439382,0.1706673 -0.673098,0.2212239 -0.842159,0.1821776 -0.294358,-0.067986 -0.42705,-0.3306925 -0.42772,-0.8468049 -6.81e-4,-0.5580771 0.162224,-0.765186 0.642677,-0.8168457 0.09833,-0.010577 0.803691,-0.014199 2.065869,-0.010609 1.763263,0.00505 1.924543,0.00756 2.016412,0.032273 0.131661,0.035366 0.222143,0.0898 0.246323,0.1481824 0.02919,0.070522 0.01354,0.2850785 -0.02649,0.3625929 -0.08318,0.1611238 -0.326745,0.3066657 -0.654685,0.3912205 -0.342744,0.088373 -0.585105,0.1261379 -0.865743,0.1348973 -0.143934,0.00449 -0.270358,0.015137 -0.28094,0.023656 -0.0106,0.00852 -0.01924,0.030154 -0.01924,0.048062 0,0.057117 0.334499,0.732164 0.39323,0.7935709 0.02837,0.029649 0.163176,-0.01126 0.591513,-0.1794688 0.629046,-0.2470275 0.726537,-0.2823962 0.966609,-0.3506797 0.330729,-0.094069 0.842226,-0.2133165 1.119753,-0.2610537 0.150682,-0.025918 0.498341,-0.060749 1.000614,-0.1002492 2.061867,-0.1621441 1.94723,-0.157016 3.748447,-0.1677055 l 1.57789,-0.00937 -0.0046,-0.084666 C 35.936913,3.3965564 35.76194,2.4334971 35.728361,2.393034 c -0.01,-0.012057 -0.05711,-0.033967 -0.10469,-0.0487 -0.07696,-0.02383 -0.150754,-0.02628 -0.669426,-0.02227 C 34.493661,2.325604 34.338579,2.3216679 34.215331,2.303226 34.129531,2.290382 33.938112,2.272883 33.789944,2.264331 33.486899,2.2468442 33.359605,2.2196908 33.14558,2.1268656 32.98257,2.0561626 32.883037,1.992285 32.722661,1.8554451 32.579753,1.733511 32.45623,1.5868783 32.395574,1.4671719 c -0.03861,-0.076193 -0.04567,-0.1096506 -0.05019,-0.2379175 -0.0048,-0.1396319 -0.0024,-0.1543869 0.03807,-0.2288681 0.05409,-0.0994046 0.16808,-0.20095905 0.297434,-0.26501595 0.08524,-0.0422115 0.115814,-0.0491847 0.215607,-0.0491847 0.152254,0 0.23634,0.0407938 0.43723,0.21212474 0.08335,0.0710794 0.187324,0.15092581 0.231062,0.17743621 0.108263,0.065614 0.273527,0.1049385 0.527611,0.1255477 0.23728,0.019248 1.039455,0.027017 1.675731,0.016233 0.310485,-0.00525 0.439007,-0.00188 0.508005,0.013343 0.255063,0.056307 0.377965,0.1976572 0.476365,0.5478843 0.02143,0.0762 0.08109,0.3706115 0.132619,0.6542478 0.09728,0.5354245 0.415628,2.1087636 0.562231,2.7786222 0.155217,0.7091884 0.312146,1.2796318 0.356738,1.2967436 0.0121,0.00467 0.210127,-0.00656 0.440058,-0.024846 0.229935,-0.018302 0.514842,-0.040189 0.633124,-0.048621 0.598349,-0.042667 1.295487,0.093409 1.98242,0.3869502 0.751104,0.3209622 1.413576,0.7639095 1.951767,1.3050174 0.739807,0.7438103 1.169824,1.5254799 1.444969,2.6266136 0.217545,0.870638 0.223702,1.501847 0.02337,2.399436 -0.147432,0.660627 -0.355232,1.192532 -0.669424,1.713527 -0.250146,0.414794 -0.480288,0.704757 -0.859696,1.083173 -0.484394,0.483122 -0.777285,0.688369 -1.541149,1.079965 -0.288669,0.147987 -0.648696,0.275043 -1.077198,0.38015 -0.902794,0.221448 -1.452843,0.240676 -2.240975,0.07833 -0.73309,-0.150993 -1.256471,-0.341678 -1.813453,-0.660704 -1.52528,-0.873635 -2.524982,-2.38774 -2.76016,-4.180424 -0.03699,-0.28196 -0.03683,-0.997923 3.04e-4,-1.277704 0.142654,-1.075155 0.532215,-2.0082509 1.170817,-2.8043852 0.580847,-0.7241327 0.970376,-1.0336408 1.983541,-1.576065 0.133382,-0.071414 0.242457,-0.1393728 0.242457,-0.1510717 0,-0.022013 -0.312867,-1.2644556 -0.340579,-1.3525 -0.0153,-0.048605 -0.01646,-0.049141 -0.05343,-0.024909 -0.09565,0.062672 -0.804084,0.8751868 -1.930713,2.2143635 -0.721564,0.857694 -0.933896,1.1060773 -1.144882,1.339282 -0.170098,0.1880041 -0.392499,0.4534899 -0.747959,0.8928537 -0.315558,0.3900447 -0.453995,0.5498407 -0.698833,0.8066617 -0.112965,0.118495 -0.325882,0.362474 -0.473147,0.542177 -0.592317,0.722782 -0.735585,0.890774 -0.905904,1.062219 -0.148194,0.149175 -0.190533,0.182997 -0.254709,0.203448 -0.192275,0.06127 -0.495812,0.06847 -1.658645,0.03925 -0.639166,-0.01605 -0.691689,-0.01542 -0.728652,0.0089 -0.05388,0.0353 -0.07323,0.08808 -0.121599,0.331588 -0.155621,0.783431 -0.363195,1.350264 -0.701702,1.916191 -0.5536,0.925517 -1.306611,1.651853 -2.169889,2.093021 -0.670165,0.342481 -1.528565,0.602289 -2.214256,0.670183 -0.218742,0.02167 -0.668806,0.0171 -0.864282,-0.0089 z m 0.738915,-1.130191 c 1.031923,-0.077 2.08643,-0.53527 2.815659,-1.223638 0.207812,-0.196166 0.504617,-0.585536 0.733407,-0.962128 0.106176,-0.174768 0.280366,-0.532097 0.337689,-0.692733 0.07039,-0.197257 0.238847,-0.817532 0.238847,-0.879466 0,-0.04697 -0.0084,-0.06436 -0.04164,-0.08615 -0.03925,-0.02573 -0.169336,-0.02775 -2.251377,-0.035 l -2.209734,-0.0077 -0.100126,-0.03409 c -0.249953,-0.08507 -0.349826,-0.249528 -0.321235,-0.528942 0.0212,-0.207042 0.104839,-0.402266 0.543697,-1.268837 0.60258,-1.1898633 0.726151,-1.4238263 1.016318,-1.9242566 0.281936,-0.486229 0.506032,-0.9079854 0.496944,-0.9352526 -0.0066,-0.020103 0.0099,-0.014828 -0.396374,-0.1258051 C 22.88578,7.6224728 22.732824,7.5940039 22.417624,7.5719632 21.9848,7.5416972 21.513114,7.5867912 21.075345,7.700281 20.503488,7.848532 19.872544,8.1689177 19.38111,8.5605888 c -0.204342,0.16286 -0.556365,0.5142251 -0.718026,0.7166905 -0.503955,0.6311474 -0.816605,1.3541877 -0.907001,2.0975507 -0.0341,0.280475 -0.02493,1.097002 0.01518,1.349122 0.144774,0.910317 0.567384,1.724632 1.24673,2.402296 0.256059,0.255425 0.398886,0.372148 0.705709,0.576735 0.814338,0.542987 1.790327,0.807875 2.720829,0.738442 z m 16.928827,-0.02296 c 0.792231,-0.09808 1.52699,-0.403531 2.198145,-0.913804 0.181793,-0.138217 0.621051,-0.570387 0.768803,-0.756403 0.354219,-0.445951 0.628947,-0.979202 0.787754,-1.529039 0.152674,-0.528612 0.199397,-1.304231 0.113757,-1.888435 C 43.138155,10.623703 42.80018,9.8650124 42.302319,9.2217859 41.822946,8.6024475 40.902257,7.9877027 40.041919,7.7125176 39.555143,7.5568179 39.232539,7.5306302 38.543368,7.5908756 c -0.22702,0.01985 -0.42102,0.041188 -0.431111,0.047422 -0.03374,0.020862 0.05687,0.4132957 0.228791,0.9908191 0.09899,0.3324765 0.106514,0.3557473 0.495909,1.5317083 0.194854,0.588436 0.397433,1.211895 0.450181,1.385464 0.08744,0.287754 0.09602,0.328469 0.09721,0.46182 0.0011,0.131634 -0.0031,0.154372 -0.04158,0.227614 -0.05851,0.111045 -0.132384,0.189095 -0.229545,0.242519 -0.07361,0.04047 -0.09851,0.04545 -0.252845,0.05068 -0.146149,0.0048 -0.18142,0.0012 -0.241068,-0.02514 -0.188551,-0.08341 -0.388433,-0.491969 -0.649184,-1.326963 -0.06477,-0.207432 -0.172423,-0.546871 -0.239224,-0.754305 C 37.59486,10.000058 37.547042,9.8334285 37.399589,9.2679503 37.214061,8.5564623 37.033806,7.9994588 36.98274,7.9798634 36.93813,7.9627394 36.339655,8.3446252 36.060543,8.5683161 35.849187,8.7377033 35.47919,9.1053463 35.324941,9.2992373 c -0.388152,0.4879112 -0.689017,1.1112617 -0.817073,1.6928467 -0.157777,0.716586 -0.147621,1.461698 0.02911,2.136144 0.31953,1.219371 1.194685,2.284884 2.347143,2.857673 0.562041,0.279341 1.0205,0.402204 1.724136,0.46205 0.128799,0.01096 0.578251,-0.0064 0.765081,-0.02952 z M 26.530255,11.433742 c 0.06734,-0.04925 0.04037,-0.275526 -0.07065,-0.592499 C 26.318932,10.439587 26.001835,9.7609721 25.842282,9.5201248 25.581501,9.1264729 25.128898,8.6530191 24.791362,8.4207896 l -0.07352,-0.050581 -0.02998,0.037007 c -0.03955,0.048822 -0.18089,0.2881214 -0.399334,0.6760286 -0.582826,1.0349698 -1.182096,2.2222648 -1.182096,2.3420128 0,0.0278 0.05206,0.02868 1.698099,0.02868 1.376195,0 1.703332,-0.0039 1.725695,-0.02018 z m 3.096929,-0.04709 c 0.1325,-0.08673 0.508778,-0.474629 0.909109,-0.937209 0.192334,-0.222244 0.433366,-0.4941348 0.535621,-0.6042018 0.102257,-0.1100682 0.25892,-0.2867144 0.348134,-0.3925493 0.08922,-0.1058336 0.311399,-0.3690711 0.493732,-0.5849732 0.182334,-0.215901 0.438996,-0.5241665 0.570365,-0.6850359 0.131368,-0.1608674 0.407903,-0.4797872 0.614526,-0.70871 C 33.576406,6.9446714 33.680902,6.8223069 33.91324,6.5201266 34.146441,6.216824 34.107596,6.262031 34.618935,5.6988483 35.175744,5.0855841 35.372757,4.8434438 35.354224,4.795149 35.347024,4.775989 35.162492,4.772925 34.025166,4.773013 32.672634,4.7731154 32.059165,4.786149 31.450031,4.827675 30.319089,4.904781 29.351794,5.0683978 28.44819,5.3354382 28.082057,5.443642 27.735841,5.5829957 27.333522,5.7840979 26.505855,6.197813 25.827151,6.7325692 25.391203,7.314465 c -0.07936,0.105925 -0.08338,0.1152935 -0.05743,0.1335892 0.01536,0.010826 0.09091,0.060207 0.167909,0.1097492 0.427963,0.2753493 0.889402,0.7774951 1.34601,1.4647553 0.181795,0.2736275 0.339465,0.5846604 0.49117,0.9689289 0.08686,0.2200174 0.118078,0.3244194 0.170308,0.5695794 0.120831,0.567162 0.189193,0.80497 0.248423,0.864203 0.02835,0.02834 0.06076,0.02924 0.903981,0.02519 l 0.874592,-0.0042 z M 5.9036189,10.673108 c -0.061888,-0.01585 -0.1202817,-0.07269 -0.1569546,-0.152785 -0.035732,-0.07804 -0.037312,-0.09419 -0.032664,-0.333559 0.00476,-0.245753 0.00588,-0.2530362 0.04785,-0.316395 0.02363,-0.035666 0.061228,-0.071793 0.083551,-0.080278 0.026426,-0.01 1.1314874,-0.017798 3.1666947,-0.022214 2.1085907,-0.00459 3.1737077,-0.012239 3.2723487,-0.023527 0.389231,-0.044547 0.650512,-0.1653378 0.869791,-0.4020778 0.182188,-0.1966943 0.299417,-0.4194089 0.332686,-0.6320454 0.02572,-0.1643984 0.0096,-0.4572853 -0.03201,-0.5814296 -0.11338,-0.3382886 -0.390986,-0.6182042 -0.735196,-0.7413141 -0.112885,-0.040378 -0.441572,-0.056495 -0.598702,-0.029356 -0.28621,0.049419 -0.552048,0.2740487 -0.699313,0.5909096 -0.06525,0.1404097 -0.08043,0.2683261 -0.06803,0.5738187 0.01481,0.3649072 -0.0092,0.4423016 -0.162205,0.5239401 -0.04593,0.024506 -0.08905,0.028749 -0.292486,0.028749 -0.275314,0 -0.351528,-0.019557 -0.431605,-0.1107603 l -0.04819,-0.054878 0.0061,-0.4867588 c 0.006,-0.475084 0.0071,-0.4900824 0.04763,-0.6253056 0.200988,-0.6715942 0.78562,-1.2010859 1.488179,-1.3478215 0.12467,-0.026031 0.214447,-0.03378 0.392547,-0.033825 0.345723,-9.27e-5 0.5907,0.052414 0.880252,0.1886787 0.621329,0.2923924 1.055252,0.8637011 1.167628,1.5373108 0.03425,0.2052782 0.02417,0.5609063 -0.02147,0.758321 -0.148126,0.6405493 -0.566448,1.2196942 -1.110508,1.5374432 -0.134812,0.07873 -0.372528,0.174107 -0.523345,0.209969 -0.108742,0.02586 -0.310117,0.02762 -3.4636573,0.03028 -1.8415123,0.0015 -3.3620583,-6.8e-4 -3.3789919,-0.0051 z"
       id="path1733" />
  </g>
</svg>
