<?xml version="1.0" encoding="UTF-8" standalone="no"?>
<!-- Created with Inkscape (http://www.inkscape.org/) -->

<svg
   width="170"
   height="39"
   viewBox="0 0 44.979167 10.31875"
   version="1.1"
   id="svg5"
   inkscape:version="1.1.2 (b8e25be833, 2022-02-05)"
   sodipodi:docname="logo_text.svg"
   xmlns:inkscape="http://www.inkscape.org/namespaces/inkscape"
   xmlns:sodipodi="http://sodipodi.sourceforge.net/DTD/sodipodi-0.dtd"
   xmlns="http://www.w3.org/2000/svg"
   xmlns:svg="http://www.w3.org/2000/svg">
  <sodipodi:namedview
     id="namedview7"
     pagecolor="#ffffff"
     bordercolor="#666666"
     borderopacity="1.0"
     inkscape:pageshadow="2"
     inkscape:pageopacity="0.0"
     inkscape:pagecheckerboard="0"
     inkscape:document-units="px"
     showgrid="false"
     units="px"
     width="64px"
     inkscape:zoom="4.1877625"
     inkscape:cx="78.920425"
     inkscape:cy="68.294226"
     inkscape:window-width="1920"
     inkscape:window-height="1017"
     inkscape:window-x="-8"
     inkscape:window-y="-8"
     inkscape:window-maximized="1"
     inkscape:current-layer="layer1" />
  <defs
     id="defs2" />
  <g
     inkscape:label="Calque 1"
     inkscape:groupmode="layer"
     id="layer1">
    <path
       style="fill:#000000;stroke-width:0.015394"
       d="m 25.638781,10.192217 c -0.190336,-0.06019 -0.289701,-0.181515 -0.310332,-0.3789025 -0.0101,-0.09632 0.0352,-0.307112 0.08387,-0.390554 l 0.028,-0.04797 0.29166,-0.01821 c 0.160414,-0.01 0.327429,-0.02828 0.371149,-0.04058 0.222987,-0.06284 0.342864,-0.176464 0.47438,-0.449627 0.112605,-0.233888 0.251675,-0.57787 0.263321,-0.651312 0.007,-0.04456 -0.01107,-0.113014 -0.08631,-0.325807 -0.18085,-0.511546 -0.488448,-1.320337 -0.992358,-2.609289 -0.278938,-0.713505 -0.619999,-1.628439 -0.70128,-1.881267 -0.06275,-0.195187 -0.06434,-0.204874 -0.03976,-0.242374 0.04943,-0.07544 0.215476,-0.118117 0.456256,-0.117259 0.189515,6.82e-4 0.285406,0.02532 0.385097,0.09893 0.0936,0.06912 0.156482,0.191272 0.2463,0.47855 0.03985,0.127485 0.150316,0.449999 0.245458,0.7167 0.09515,0.266704 0.268449,0.762005 0.385123,1.100674 0.245638,0.713007 0.512939,1.47189 0.548022,1.555852 0.0185,0.04428 0.02757,0.05289 0.03812,0.03623 0.0076,-0.01204 0.01396,-0.03336 0.01408,-0.04733 3.06e-4,-0.03575 0.128652,-0.463098 0.202679,-0.674972 0.03403,-0.09737 0.151027,-0.416023 0.26001,-0.708125 0.397888,-1.06642 0.629639,-1.707909 0.692773,-1.917594 0.08406,-0.279211 0.150532,-0.418097 0.245549,-0.513113 0.107698,-0.107702 0.182276,-0.129357 0.42053,-0.12211 0.163257,0.005 0.198937,0.01098 0.274809,0.04628 0.11199,0.0521 0.12901,0.08269 0.104175,0.187162 -0.05465,0.22985 -0.324291,0.972927 -0.872328,2.404038 -0.207507,0.541869 -0.484377,1.279631 -0.61527,1.639465 -0.251569,0.691585 -0.521681,1.374323 -0.700393,1.770314 -0.297911,0.660109 -0.604086,0.9995575 -0.992943,1.1008415 -0.113398,0.02953 -0.628251,0.03053 -0.720393,0.0015 z M 2.2860178,9.1563225 C 1.9184841,9.1084335 1.6150946,9.0074635 1.3466797,8.8437055 0.70133322,8.4499895 0.29908691,7.7452325 0.20005439,6.8347565 c -0.0217426,-0.199901 -0.0200818,-1.555246 0.00197,-1.598143 0.0612765,-0.11927 0.17017597,-0.157957 0.40942917,-0.145447 0.12695283,0.0066 0.15089142,0.01286 0.22706174,0.05901 l 0.0851471,0.0516 1.0159e-4,0.554782 c 2.0469e-4,0.906392 0.0324682,1.317021 0.12290101,1.565131 0.1436277,0.394074 0.5284763,0.818344 0.8855481,0.976258 0.1618592,0.07159 0.250291,0.08342 0.625055,0.08368 0.3184624,2.04e-4 0.3608446,-0.003 0.4956473,-0.03716 0.4600201,-0.116686 0.9136274,-0.508 1.1433242,-0.986303 0.1315428,-0.273917 0.137244,-0.306025 0.1366698,-0.769701 -5.182e-4,-0.391548 -0.00141,-0.403183 -0.042385,-0.535354 -0.2082348,-0.671642 -0.8632777,-1.243512 -1.5734936,-1.373706 -0.2053746,-0.03765 -0.8134602,-0.04628 -1.5855864,-0.02251 -0.6029273,0.01856 -0.6728149,0.01814 -0.78387418,-0.0047 -0.15363521,-0.03174 -0.25028223,-0.08976 -0.30140576,-0.180943 -0.03353952,-0.05982 -0.03848502,-0.08745 -0.03847758,-0.214886 1.485e-5,-0.195163 0.03579223,-0.279413 0.1378023,-0.324537 0.0682924,-0.03021 0.0962925,-0.03075 1.35142662,-0.0255 1.2646952,0.0053 1.2837269,0.0058 1.4356265,0.04008 1.0328916,0.233063 1.8769789,1.045808 2.1123011,2.03387 0.034606,0.145303 0.039343,0.203915 0.046332,0.573183 0.00649,0.342829 0.00341,0.437558 -0.018556,0.568843 -0.1629918,0.974764 -1.0949809,1.853544 -2.1423704,2.020063 -0.1426536,0.02268 -0.5156447,0.03083 -0.6442567,0.01405 z m 21.7399472,-0.03532 c -0.986601,-0.09579 -1.920451,-0.507617 -2.639835,-1.16414 -0.425282,-0.38812 -0.898293,-1.049813 -1.135096,-1.587875 -0.262269,-0.59594 -0.345875,-1.084801 -0.325776,-1.904914 0.01347,-0.549558 0.04846,-0.771644 0.188021,-1.193037 0.29949,-0.904354 1.011917,-1.842882 1.798568,-2.36936797 0.72267,-0.483667 1.603176,-0.754609 2.462739,-0.757811 0.556291,-0.0021 1.354117,0.140391 1.602971,0.286228 0.08294,0.0486 0.106691,0.104447 0.09575,0.22515 -0.0146,0.161047 -0.175496,0.44270997 -0.312635,0.54730797 -0.07726,0.05892 -0.128693,0.05563 -0.505586,-0.03233 -0.456885,-0.106634 -0.623602,-0.131313 -0.887053,-0.131313 -0.926829,0 -1.831622,0.390661 -2.519188,1.087703 -0.551643,0.559246 -0.903075,1.270451 -0.998028,2.019744 -0.03396,0.267914 -0.0254,0.886778 0.01536,1.11052 0.13794,0.757278 0.469135,1.384232 1.018567,1.928155 0.462827,0.45819 1.034812,0.782858 1.660438,0.942495 0.306428,0.0782 0.528214,0.106121 0.846672,0.106629 0.306581,5.2e-4 0.408843,-0.01483 0.877459,-0.131453 0.308777,-0.07684 0.442635,-0.08916 0.509427,-0.04686 0.141657,0.08969 0.329547,0.442654 0.329547,0.619063 0,0.07248 -0.04433,0.121081 -0.166849,0.182926 -0.350218,0.176791 -1.366787,0.316469 -1.915482,0.263189 z M 8.9593352,8.2580865 c -1.0370569,-0.09289 -1.8417274,-1.014645 -1.9547775,-2.239213 -0.046345,-0.50195 6.804e-4,-1.057351 0.1235335,-1.45743 0.3383613,-1.102393 1.276014,-1.717093 2.4854961,-1.629422 0.4579657,0.03321 0.8193297,0.150916 1.1657137,0.379745 0.161428,0.106644 0.462634,0.412868 0.580114,0.589775 0.320092,0.482014 0.478605,1.040515 0.478605,1.686298 0,1.155429 -0.547212,2.14513 -1.390556,2.514992 -0.198051,0.08686 -0.400621,0.136347 -0.6365044,0.155503 -0.2176157,0.01768 -0.6529888,0.01753 -0.8516244,-2.04e-4 z m 0.9236437,-0.776166 c 0.1764261,-0.05558 0.2926591,-0.130452 0.4541241,-0.292523 0.170946,-0.171588 0.26046,-0.308593 0.364841,-0.558408 0.07993,-0.191275 0.157774,-0.501042 0.182276,-0.725254 0.02661,-0.243577 0.01121,-0.670145 -0.03151,-0.872082 -0.153964,-0.727833 -0.531231,-1.186624 -1.0921079,-1.328101 -0.1557972,-0.03929 -0.5375991,-0.03497 -0.7103884,0.0082 -0.5833279,0.145242 -0.9923326,0.644824 -1.099623,1.343142 -0.031919,0.207762 -0.031308,0.93101 8.666e-4,1.1179 0.076997,0.446131 0.3080316,0.860637 0.6086417,1.09197 0.1587454,0.122162 0.3421809,0.206374 0.5186754,0.238111 0.040099,0.0072 0.2183893,0.01103 0.3961908,0.0085 0.254005,-0.0036 0.3414174,-0.01032 0.4079413,-0.03131 z M 31.29609,8.2586265 c -0.672357,-0.06806 -1.250544,-0.512165 -1.593244,-1.223746 -0.120508,-0.250225 -0.192634,-0.479235 -0.247269,-0.785097 -0.03398,-0.190177 -0.04715,-0.785381 -0.02336,-1.054492 0.04618,-0.522044 0.189672,-0.954889 0.443204,-1.336879 0.107153,-0.161445 0.327015,-0.392531 0.486232,-0.511064 0.23417,-0.174327 0.568728,-0.320647 0.860283,-0.376246 0.318332,-0.06071 0.774446,-0.06011 1.073023,0.0014 0.611463,0.125981 1.068582,0.465565 1.332701,0.990034 0.05612,0.111433 0.162249,0.407193 0.162249,0.452137 0,0.03882 -0.135367,0.14605 -0.228278,0.180814 -0.126125,0.04719 -0.324491,0.06644 -0.456755,0.04434 -0.16182,-0.02705 -0.16692,-0.03045 -0.198212,-0.131773 -0.116588,-0.377575 -0.440307,-0.696982 -0.81143,-0.800624 -0.145142,-0.04053 -0.499853,-0.03624 -0.668309,0.0081 -0.574036,0.15108 -0.963294,0.647283 -1.055038,1.344892 -0.01161,0.08836 -0.01532,0.307611 -0.01076,0.638851 0.0065,0.475486 0.0092,0.513685 0.04641,0.668074 0.141016,0.584898 0.475032,0.988478 0.924552,1.117106 0.107508,0.03078 0.567185,0.0445 0.715854,0.02139 0.438442,-0.06815 0.728014,-0.361466 0.909358,-0.921132 0.04723,-0.145783 0.06462,-0.181259 0.095,-0.193881 0.05877,-0.0244 0.562412,-0.02185 0.648973,0.0034 0.08594,0.02497 0.144699,0.0746 0.159861,0.134998 0.02533,0.100931 -0.04646,0.403716 -0.139985,0.590404 -0.186819,0.372921 -0.561814,0.737474 -0.969511,0.942514 -0.327465,0.164688 -0.477602,0.196771 -0.955249,0.204125 -0.203204,0.0032 -0.42834,-3.04e-4 -0.500306,-0.0075 z m 6.463692,3.96e-4 c -0.532116,-0.05151 -0.960784,-0.252155 -1.330399,-0.622714 -0.337357,-0.338219 -0.554748,-0.754953 -0.656996,-1.259431 -0.03291,-0.162349 -0.03513,-0.210127 -0.03513,-0.758241 0,-0.547288 0.0021,-0.596076 0.03495,-0.757339 0.198115,-0.977192 0.889713,-1.699374 1.809317,-1.889323 0.436546,-0.09017 0.996393,-0.05021 1.393563,0.09944 0.528593,0.199193 0.940794,0.573639 1.194146,1.08478 0.199966,0.403431 0.285392,0.783573 0.286001,1.272674 3.06e-4,0.240234 2.04e-4,0.241491 -0.04152,0.290983 -0.02301,0.02734 -0.07322,0.06423 -0.111605,0.08199 -0.06928,0.03207 -0.08257,0.03236 -1.855489,0.04 l -1.785712,0.0077 0.0043,0.115455 c 0.02463,0.666826 0.439605,1.302012 0.971445,1.486971 0.161618,0.0562 0.324821,0.07236 0.646713,0.06401 0.32784,-0.0086 0.423898,-0.0304 0.580036,-0.132196 0.129907,-0.08471 0.234638,-0.197594 0.387921,-0.418172 0.254681,-0.366483 0.33182,-0.423667 0.567873,-0.420976 0.160526,0.0018 0.274101,0.02466 0.375659,0.07551 0.07769,0.0389 0.183749,0.146502 0.183749,0.186406 0,0.03126 -0.243613,0.503224 -0.320403,0.620754 -0.0768,0.117568 -0.340688,0.376177 -0.484241,0.474577 -0.212923,0.145951 -0.503536,0.267162 -0.788639,0.328928 -0.110489,0.02394 -0.214928,0.03113 -0.5157,0.03553 -0.207437,0.0031 -0.436848,-3.05e-4 -0.509808,-0.0072 z m 1.747622,-3.1692 c 0.01411,-0.02286 -0.09378,-0.500553 -0.138056,-0.611214 -0.139497,-0.348689 -0.350265,-0.558555 -0.699514,-0.696525 -0.277644,-0.109685 -0.608424,-0.134824 -0.883262,-0.06712 -0.500168,0.123198 -0.904934,0.513445 -1.040453,1.003132 -0.03424,0.123776 -0.05698,0.320499 -0.04165,0.360454 0.0085,0.02202 0.145159,0.02439 1.402096,0.02439 0.766006,0 1.396385,-0.0059 1.400843,-0.01311 z m 2.851389,3.1679 c -0.632007,-0.05601 -1.147941,-0.403263 -1.43946,-0.968831 -0.08436,-0.163635 -0.186695,-0.440521 -0.186695,-0.505064 0,-0.0359 0.09893,-0.130077 0.17703,-0.168552 0.09107,-0.04486 0.21263,-0.06937 0.344641,-0.06951 0.2195,-2.03e-4 0.302031,0.06579 0.486635,0.389191 0.220363,0.386032 0.392459,0.520093 0.73122,0.569603 0.169651,0.02481 0.722775,0.01884 0.858756,-0.0093 0.372402,-0.07693 0.637761,-0.308239 0.711287,-0.620038 0.06041,-0.256154 -0.05434,-0.462672 -0.338388,-0.609026 -0.182322,-0.09394 -0.374818,-0.154778 -0.969956,-0.306543 -0.556679,-0.141937 -0.848436,-0.234733 -1.076048,-0.342225 -0.432595,-0.204298 -0.699989,-0.495095 -0.786293,-0.855106 -0.03914,-0.163307 -0.04235,-0.468166 -0.0067,-0.641443 0.09991,-0.48613 0.483612,-0.880537 1.037004,-1.065943 0.609579,-0.204228 1.417023,-0.1661 1.99745,0.09433 0.348887,0.156532 0.632989,0.414295 0.750535,0.680939 0.04428,0.100462 0.08533,0.279615 0.08533,0.372524 0,0.0573 -0.0084,0.07961 -0.04252,0.11379 -0.09352,0.09352 -0.439472,0.176288 -0.593108,0.141906 -0.116524,-0.02608 -0.178089,-0.0845 -0.326349,-0.309721 -0.07118,-0.10813 -0.159219,-0.222314 -0.195635,-0.253741 -0.15979,-0.137892 -0.373935,-0.205852 -0.689673,-0.218872 -0.468273,-0.01931 -0.802373,0.07317 -1.00923,0.279345 -0.05131,0.05114 -0.108928,0.125577 -0.128044,0.165415 -0.101636,0.211835 -0.02654,0.456067 0.185003,0.601773 0.154818,0.106627 0.400906,0.188916 1.252459,0.418811 0.90567,0.244505 1.202071,0.363612 1.423722,0.572129 0.14984,0.140956 0.243539,0.287001 0.309451,0.482321 0.0421,0.124743 0.05044,0.174697 0.05673,0.339797 0.01412,0.369797 -0.09461,0.70709 -0.328284,1.018433 -0.307993,0.410382 -0.765209,0.65585 -1.31074,0.703708 -0.206184,0.01809 -0.775375,0.01803 -0.980084,-2.04e-4 z M 5.7958591,8.1459255 c -0.095084,-0.02475 -0.127885,-0.04232 -0.1770309,-0.09484 l -0.038485,-0.04114 -0.0044,-3.32772 c -0.00246,-1.830247 -3.053e-4,-3.350385 0.00461,-3.378083 0.026425,-0.147621 0.2013308,-0.226346 0.4815839,-0.216752 0.1463188,0.0051 0.1753679,0.01086 0.2565381,0.05171 0.070272,0.03538 0.098851,0.06037 0.1230329,0.107643 0.031445,0.06147 0.031497,0.06697 0.031497,3.378989 v 3.317417 l -0.034281,0.06411 c -0.025797,0.04824 -0.054745,0.07413 -0.1169179,0.104554 -0.071368,0.03493 -0.1076201,0.04135 -0.2658998,0.04728 -0.1218309,0.0046 -0.2090674,2.05e-4 -0.2602367,-0.01317 z m 7.7620239,0.0055 c -0.243541,-0.04458 -0.36721,-0.24089 -0.519138,-0.824053 -0.02648,-0.101605 -0.106921,-0.36484 -0.178788,-0.584976 -0.07186,-0.220133 -0.193031,-0.618454 -0.269258,-0.885156 -0.07623,-0.266702 -0.262429,-0.858988 -0.413781,-1.316189 -0.233241,-0.704555 -0.347118,-1.074882 -0.39073,-1.270633 -0.01258,-0.05648 0.0368,-0.127797 0.123989,-0.179043 0.073,-0.0429 0.07775,-0.04356 0.320392,-0.04356 0.239881,0 0.24815,9.88e-4 0.317017,0.04159 0.135359,0.07957 0.183558,0.174355 0.268096,0.527211 0.02851,0.118973 0.117545,0.448379 0.197867,0.732014 0.08032,0.283636 0.212816,0.765085 0.294436,1.069887 0.254731,0.951302 0.429339,1.5471 0.4534,1.5471 0.007,0 0.01749,-0.03291 0.02324,-0.07312 0.02684,-0.187956 0.148619,-0.648691 0.35504,-1.343131 0.138523,-0.466022 0.490089,-1.747673 0.529948,-1.931951 0.04505,-0.20831 0.100349,-0.360038 0.155683,-0.427161 0.0253,-0.03069 0.08569,-0.07529 0.13419,-0.09911 0.08124,-0.0399 0.104795,-0.04373 0.29849,-0.0486 0.174871,-0.0044 0.231785,2.04e-4 0.337948,0.02698 0.07021,0.01776 0.134153,0.03877 0.142086,0.0467 0.0079,0.0079 0.235468,0.854773 0.505638,1.881866 0.270171,1.027095 0.497685,1.873913 0.50559,1.881817 0.0079,0.0079 0.01658,0.01137 0.01925,0.0077 0.0028,-0.0037 0.03458,-0.1279 0.07084,-0.276066 0.07698,-0.314408 0.202499,-0.736589 0.40743,-1.370412 0.162493,-0.50257 0.387115,-1.245207 0.504519,-1.668047 0.08737,-0.314635 0.112929,-0.372597 0.193879,-0.439548 0.08195,-0.06777 0.182406,-0.09342 0.366056,-0.09342 0.253605,0 0.407941,0.06863 0.407941,0.18142 0,0.09394 -0.217693,0.806509 -0.600642,1.96605 -0.303393,0.918656 -0.581213,1.802316 -0.693758,2.206626 -0.103847,0.373067 -0.166195,0.521855 -0.262556,0.626532 -0.108058,0.117384 -0.165924,0.135854 -0.428875,0.136881 -0.267374,9.89e-4 -0.341221,-0.01643 -0.441219,-0.104458 -0.08032,-0.0707 -0.127141,-0.163063 -0.165023,-0.325563 -0.01382,-0.05925 -0.04265,-0.183958 -0.06405,-0.277092 -0.02142,-0.09316 -0.08328,-0.33215 -0.137471,-0.531119 -0.05419,-0.198968 -0.175717,-0.663099 -0.270063,-1.031402 -0.154716,-0.603977 -0.315863,-1.211539 -0.378696,-1.427796 -0.01291,-0.04445 -0.02913,-0.08082 -0.03604,-0.08082 -0.0069,0 -0.01742,0.03245 -0.02337,0.07213 -0.02064,0.137604 -0.133434,0.569613 -0.294684,1.128608 -0.08915,0.309034 -0.207019,0.735066 -0.261942,0.946734 -0.05492,0.211669 -0.133925,0.506078 -0.17556,0.654245 -0.04163,0.148169 -0.09262,0.352548 -0.113319,0.454178 -0.0207,0.101635 -0.05197,0.22314 -0.06951,0.270024 -0.03866,0.103353 -0.122334,0.18923 -0.21682,0.222554 -0.08184,0.02887 -0.417055,0.04384 -0.527668,0.02359 z m 21.060378,2.03e-4 c -0.09942,-0.01824 -0.16398,-0.05952 -0.198646,-0.127054 -0.02856,-0.05564 -0.02933,-0.143247 -0.02933,-3.412447 v -3.355304 l 0.03813,-0.04531 c 0.02096,-0.02493 0.07467,-0.06181 0.119303,-0.082 0.07264,-0.03285 0.103015,-0.03668 0.288994,-0.03668 0.200484,0 0.211022,0.0015 0.298553,0.04619 0.165173,0.08407 0.147879,-0.32282597 0.14785,3.478813 0,3.13516 -0.0015,3.328416 -0.02694,3.378925 -0.03045,0.06058 -0.104384,0.115585 -0.18674,0.138906 -0.07724,0.02188 -0.363814,0.03204 -0.451179,0.01601 z M 0.18473189,3.5703135 C 0.05653001,3.5134745 3.3689858e-6,3.4015765 3.3689858e-6,3.2046045 c 0,-0.147158 0.024853461014,-0.217467 0.1093015510142,-0.309213 l 0.0722383,-0.07847 0.80593305,-5.19e-4 C 1.8255847,2.8157755 1.8601006,2.8135025 2.0377712,2.7470825 2.3079016,2.6460085 2.5486282,2.3630505 2.6266066,2.0549415 2.7167016,1.6989565 2.5769936,1.2524035 2.312401,1.0506625 2.1363115,0.91639953 1.9876534,0.87763253 1.6872548,0.88763253 c -0.1657559,0.0055 -0.1981059,0.01118 -0.2719035,0.04758 -0.1893786,0.09342 -0.3638679,0.27651997 -0.42874203,0.44991197 -0.0475345,0.127036 -0.0627171,0.253231 -0.0628506,0.522121 -1.023e-4,0.238851 -0.00102,0.246117 -0.0394934,0.296477 -0.0677411,0.08881 -0.14582936,0.118313 -0.33008059,0.124703 -0.14530093,0.0051 -0.16854669,0.002 -0.23000942,-0.03004 -0.13005948,-0.06779 -0.13110059,-0.07156 -0.13650223,-0.494697 -0.004254,-0.33375 -0.001422,-0.386714 0.0275548,-0.512483 0.12244756,-0.53162297 0.618558,-1.00878697 1.19099367,-1.14550997 0.7260034,-0.1734 1.517982,0.22328 1.8567189,0.92997897 0.1317406,0.274847 0.1805495,0.528255 0.1648925,0.856103 -0.038951,0.815667 -0.5987283,1.40999 -1.5266712,1.620888 -0.1275355,0.02899 -0.199102,0.03188 -0.9005508,0.03653 -0.66260799,0.0044 -0.76903358,0.002 -0.81588411,-0.01885 z"
       id="path1733"
       sodipodi:nodetypes="ccccccsccssccscssscscscscscsssscccsscccccccccsccsscsssccsscscccssscscssssssccsccscssccccccssssccccscccccscscccccsccssscsssccscccccssccsssccccssscscssccsccsccscsscsscccscscccsssccsscsccsscsscsssscssssscssssccsccsccccccsscsccsscccssscsccscscscssscsssccsccssssscsccsssscsssssscccsscccscccscccsccccsscccccccccssssccc" />
  </g>
</svg>
